<svg width="532" height="532" viewBox="0 0 532 532" fill="none" xmlns="http://www.w3.org/2000/svg">
<g clip-path="url(#clip0_969_2)">
<path d="M99.7402 597.402L436.354 599.37L485.567 577.716L501.315 567.874L509.189 560L517.063 550.157L521 544.252V540.315V530.472L519.031 522.598L517.063 516.693L505.252 491.102L483.598 451.732L461.945 416.299L436.354 378.898L418.638 359.213L396.984 349.37V335.591L414.701 311.968L418.638 300.157L424.543 286.378L426.512 268.661V247.008L422.575 219.449L412.732 189.921L398.953 160.394L377.299 124.961L351.709 97.4016L332.024 81.6535L312.339 69.8425L298.559 63.937L284.78 60H251.315L227.693 67.874L200.134 85.5905L170.606 115.118L146.984 146.614L127.299 185.984L119.425 209.606L113.52 231.26L111.551 250.945V272.598L115.488 292.283L123.362 310L139.11 333.622L152.89 349.37L135.173 355.276L119.425 363.15L97.7717 386.772L78.0866 416.299L44.622 473.386L32.811 500.945L21 534.409V550.157L24.937 560L32.811 567.874L50.5276 579.685L74.1496 589.528L99.7402 597.402Z" fill="#808184"/>
<path d="M156.827 243.071H152.89L148.953 233.228L146.984 219.449V201.732L154.858 197.795L168.638 193.858L190.291 187.953L209.976 184.016L235.567 180.079L253.283 178.11H286.748L306.433 180.079L337.929 184.016L363.52 189.921L381.236 195.827V237.165H375.331L371.394 254.882L369.425 270.63L361.551 304.095L347.772 325.748L339.898 335.591L332.023 343.465L322.181 349.37L312.338 353.307L306.433 372.992L298.559 386.772L294.622 388.74L282.811 390.709H265.094L257.22 388.74L241.472 382.835L235.567 365.118L229.661 353.307L223.756 351.339L213.913 347.402L200.134 337.559L190.291 327.717L186.354 321.811L182.417 315.906L170.606 290.315L158.795 245.039L156.827 243.071Z" fill="#E4CAB8" stroke="#E6C7B2"/>
</g>
<defs>
<clipPath id="clip0_969_2">
<rect width="532" height="532" fill="white"/>
</clipPath>
</defs>
</svg>
